<?xml version="1.0" encoding="UTF-8"?>
<!DOCTYPE svg  PUBLIC '-//W3C//DTD SVG 1.1//EN'  'http://www.w3.org/Graphics/SVG/1.1/DTD/svg11.dtd'>
<svg enable-background="new 0 0 1604.671 1676.995" version="1.1" viewBox="0 0 1604.671 1676.995" xml:space="preserve" xmlns="http://www.w3.org/2000/svg">
	<polygon points="1271.5 40.197 1275.4 40.197 1273.2 38.498 1273.2 38.499" fill="none"/>
	<path d="m801.67 1089.5c-137.7 0-249.33-111.63-249.33-249.33h-224.97l-34.158 41.588c-1.25 1.41-2.621 2.092-3.755 3.083-2.192 1.917-2.091 3.239-5.217 3.239-1.783 0-3.386-0.32-4.59 1.149-2.307 2.815-5.556-2.379-8.346 0.627-2.534 2.73-3.713 2.429-6.677 0.418-2.527-1.715-3.446-4.668-6.573-1.985-3.217 2.76-4.223 8.667-6.051 12.225-1.37 2.667-2.992-0.206-4.694-0.104-2.698 0.16-0.427 1.679-3.234-0.732l-19.3 12.748c-0.392 1.156-1.128 1.521-0.928 2.822 0.271 1.754 3e-3 3.534-1.93 4.179-2.073 0.692-0.995 2.316-1.303 4.023-0.495 2.733-3.49 6.923-1.263 8.412 3.461 2.315 1.306 3.902 0.834 5.329-1.001 3.024 3.877 2.892 0.939 7.314-2.138 3.218-10.413 9.188-10.641 12.225-0.155 2.069-4.692 7.682-5.425 11.285-0.497 2.446-3.216 2.859-3.756 4.806-2.186 7.884-11.607-1.229-17.214 4.389-2.073 2.076-10.032 3.19-13.249 4.388-8.638 3.218-14.341 6.787-20.276 11.292-0.321 4.141-3.093 8.656-3.093 12.741 0 4.669 0.169 4.603 2.504 7.836 0.798 1.103-0.688 4.686-1.252 6.165-1.462 3.837 1.669 6.179 0.835 10.032-0.506 2.336-1.776 2.521-2.608 4.388-1.094 2.46 0.204 3.075-1.983 5.747-0.501 4.772-0.582 6.353 2.295 10.24 4.044 5.465 1.889 7.292 0.939 13.479-0.449 2.931 1.982 3.138 1.982 4.806 0 2.056-0.899 3.49-0.418 5.434 0.189 0.046 0.229 0.162 0.418 0.209 1.451 2.902 0.834 4.26 0.834 7.628l-21.871 25.241h923.48c0.108-0.139 0.305-0.154 0.617 0h8.135c0.446-0.138 0.942-0.24 1.527-0.268 3.3-0.156 5.598 0.522 9.077-0.418 2.161-0.584-8.869-12.317-0.209-11.389 1.372 0.146 5.067-1.924 5.947-1.044 1.342 1.342 0.188 3.235 0.834 4.702 1.047 2.381 3.515 1.955 4.59 5.433 1.974 6.381 7.157-2.786 9.703-3.03 2.981-0.285 11.769-5.28 5.112-7.524 0.313-1.261 2.155 0.045 2.504-1.776 0.23-1.207-0.142-4.686 1.878-4.075l7.929 2.403c2.119 0.642-8.5 7.427-9.389 9.3-1.279 2.694-0.086 8.895-4.173 6.478-0.81-0.479-1.439 0.147-1.757 1.208h209.77c-0.743-2.553-1.869-7.004-1.869-9.777 2.962-0.747 8.793-3.959 8.345-7.419-0.609-4.704 1.565-6.31 1.565-9.717-3.593-0.708 1.429-6.664 1.878-8.464 2.164-8.657 2.097-8.341 9.076-13.583 2.307-1.734 4.091-1.721 6.363-2.927 3.957-2.1 3.429-5.286 9.389-5.746 4.423-0.342 13.225-1.994 16.588-5.016 2.201-1.978 2.361-3.803 0.835-6.27-2.764-4.466 6.084-3.047 4.276-8.464 10.109-1.153-1.657-17.386 10.746-19.853 6.075-1.208 7.762-5.22 11.997-7.21 2.256-1.059 2.875-1.981 5.529-2.612 2.596-0.616 3.616-2.353 4.694-2.716 0-1.577-1.328-3.092-1.043-4.493 0.556-2.733 3.092-0.35 1.982-3.762-0.981-3.019 11.889-4.247 9.181-13.061-0.746-2.427 3.363-5.273 5.007-6.582 3.836-3.054 3.777-8.502 5.738-12.435 1.891-3.909 1.907-16.092 2.086-20.689 0.27-6.918 6.625-10.717 7.303-16.195 2.106-1.053 0.036-7.133 5.425-5.851 2.911 0.693 6.49 1.985 9.493 1.985l0.208-0.104 0.105-0.104c1.145-2.878-0.135-13.361 3.756-14.315 7.583-1.861 13.674-3.619 20.03-8.15 1.731-12.267 26.182-9.514 35.574-11.389 10.609-0.517 15.844-22.542 7.929-29.258-1.433-1.215-4.44-3.775-5.321-5.538-1.058-2.116 0.391-4.541 0.479-6.948h-451.06c4e-3 137.7-111.63 249.33-249.33 249.33z"/>
	<path d="m1141.2 171.51l-94.307-7.314-42.147-32.81-34.427 22.57-50.076 13.584-87.423 5.225-60.717 42.005c1.419 1.142 4.354 3.721 5.112 5.433 0.812 1.835 0.498 4.501-0.834 6.061-0.861 1.008-1.492 2.667-1.044 3.971 0.733 2.134-2.391 2.797-1.669 4.702 0.805 2.125 0.27 3-0.208 5.225l-30.149-7.21c-0.644-1.181-0.667-3.558-1.669-4.389-1.38-1.142-1.349-2.687-1.46-4.494-0.052-0.867-0.877-2.085-1.461-2.821-1.4-1.766-3.36-0.843-4.382-3.344-1.214-2.975-5.085-0.448-7.198 0l-23.055-0.94-1.461-6.269c-2.485-4.993-2.718-9.744-1.46-15.047 0.414-1.744-0.696-3.363-1.461-4.806-1.458-5.859-7.213-8.403-9.702-12.644-2.717-4.628-1.745-9.929-7.929-10.448-1.021-0.086-2.705-7.158-4.173-8.778-0.491-0.543-8.59-4.501-9.389-4.702-0.957-2.397-4.651-4.829-5.946-7.418-5.299 0-0.191 9.436-1.148 11.18-1.708 3.11-12.334 9.009-15.648 12.33-3.239 3.246-5.708-1.363-7.199 5.12-1.346 5.85-8.599 6.632-8.659 7.001-0.405 0.135-0.769 0.327-1.148 0.523l-4.903-6.165-26.811 12.852-8.763 8.672-69.166-38.974-34.264-0.262c-2.446 1.035-4.481 2.555-5.946 4.807-1.682 2.583-4.276 2.358-6.781 3.657-1.582 0.82-1.274 2.842-3.025 3.397-3.063 0.972-2.666 0.043-3.546 3.239-0.995 3.609-4.692-0.694-5.894-1.255-5.025-2.341-6.565 3.966-7.98 7.158-0.411 1.649-3.197 3.146-4.277 4.807-1.247 1.915-1.962 2.241-4.225 2.037-3.6-0.324-4.273-4.348-8.555-3.082-2.415 0.714-5.699 3.229-6.52 5.695-0.48 1.441-0.154 3.202-1.878 3.448-3.552 2.385-3.807 2.984-3.807 6.792 0 1.901-0.449 5.469-1.617 7.001-1.433 1.882-2.864 1.256-4.434 2.456-2.063 1.578 0.176 4.741-2.451 5.486-5.696 1.614-2.22 1.802-4.069 5.799-0.933 2.02-1.198 2.618-2.92 4.075-1.711 1.449-2.358 2.983-3.286 5.015-1.683 4.433-2.438 10.118-5.581 13.845-1.364 1.616-1.852 1.226-3.86 1.515l5.007 2.873c2.717 0.951 4.752-3.838 6.364-5.485 2.525-2.583 8.678-2.424 12.153-3.031 4.121-0.72 2.89 9.851 1.93 12.331-2.376 6.141 1.852 14.001-1.304 19.383-2.818 2.716-2.215 3.482-4.016 6.739-1.952 3.532-5.651 5.382-8.346 8.254-1.578 1.682 0.881 2.353 0.104 3.605-2.063 3.328 3.153 3.494-1.617 5.747-2.085 0.986-3.968 1.543-3.13 4.284 0.482 1.575-1.825 1.49-1.825 3.448 0 0.973 1.533 2.87-0.104 3.396-0.454 0.146-0.905 0.234-1.35 0.296h1005.6c-0.422-5.978-3.917-17.242-7.052-21.456-1.461-1.963-6.265-6.514-6.364-8.255-0.081-1.444-0.865-9.271 0.104-10.24 4.483-4.483 5.266-5.264 3.651-11.389-0.89-3.376-5.842-6.411-5.842-9.927 13.228 0 16.483-5.895 16.483-18.077-0.495-5.804-1.182-14.694 0.209-20.271 0.715-2.865 3.04-11.144 2.399-13.688h-0.208c-0.052-0.158-3.825-0.717-4.382-1.045-6.461-3.815-11.362-0.373-14.71-8.568-3.101-7.588-8.08-6.897-15.335-6.897-3.492 0.919-6.158 4.076-7.417 7.106-0.423 1.018-2.365 7.984-2.191 3.187 0.041-1.136 0.627-2.864 0.105-3.97-0.672-1.423-3.243-3.148-4.487-4.337-2.971-2.838-6.085-5.905-8.554-9.195-1.402-1.866-2.146-4.162-3.703-5.904-2.273-2.546-2.827 0.69-5.008 0.261-1.164-0.229-2.236-0.98-3.589-1.254-3.945 0.355-7.997 3.971-11.893 3.971-2.425 0 2.475-3.44 4.172-3.867 0.038-0.158 0.545-0.6 0.626-0.627 0-0.786-0.313-1.497-0.313-2.09-1.441-0.237-9.166-1.362-9.285-2.822-0.263-3.23 5.425-2.676 5.425-6.269 0-2.182 6.169-1.521 7.511-1.672 3.918-0.445 6.99 0.87 6.99-3.448 0-2.46-1.221-8.36-1.982-10.658l-11.789 0.523c-1.458 4.401-14.275 1.43-18.57 2.09-1.823 0.28-4.498 2.403-5.529 2.403l-0.104-0.104c0-2.013 0.012-3.613 0.522-5.643 6.578-1.63 13.894-17.994 11.997-23.719-9.72 0-10.3-11.18-20.343-11.18-0.378-1.532-0.626-4.016-0.626-5.643 1.558-0.386 2.913-0.36 4.277-1.463 2.602-1.213 3.565-0.833 4.59-3.343 0.552-1.352 0.455-2.917 0-4.179-0.973-2.691-1.94-6.806-4.382-8.569-2.254-1.629-4.152-0.404-5.216-3.866-0.738-2.405-2.166-6.667-0.208-8.881 3.376-3.82 0.094-7.38-2.295-11.285l-15.873-12.406h-3.861l-130.39 131.32z"/>
	<path d="m390.03 311.22c0.337 0.415 2.6 2.89 2.6 3.552 0.994 0.334-1.932 2.184-2.191 2.299-3.391 1.504 0.242 5.012-1.356 7.733-2.188 3.728-4.439 8.105-5.738 12.33-0.822 2.678-0.313 6.068-0.313 8.881 0 2.789-0.938 3.951-1.46 6.061-1.245 0.246-3.56 4.902-3.13 6.061 3.431 10.036-2 3.602-5.529 9.613-1.154 1.964 8.763 14.912 12.31 12.747 4.108-2.505 2.66 1.853 3.756 4.18 2.355 5.001 7.511 6.251 7.511 11.18 0 4.102 1.118 7.114 2.608 10.763 2.127 5.206 4.495 6.666 7.094 11.076 1.881 3.194 0.391 4.255-0.313 7.314-0.762 3.306 1.538 6.256 0.626 9.927l-8.137 11.285c-1.074 1.49-7.407 3.981-7.407 5.642 0 1.759-2.738 1.058-3.651 2.612-1.292 2.203 4.302 4.573-0.626 7.628-2.943 1.825-3.138 2.801-1.982 6.165 1.191 3.469-5.893 9.199-4.59 11.808 1.142 2.285-2.504 1.015-2.504 3.03 0 4.86-0.649 4.933-1.879 9.196-1.65 5.72 0.122 1.839-4.382 4.493-5.445 3.208-1.54 16.946-1.043 22.988-0.396 6.353-4.152 3.215-3.234 8.881 0.528 3.263-3.357 7.403-1.774 9.404 0.942 1.191 1.808 6.465 2.608 6.687 3.425 0.951 5.076-4.806 7.303-4.806 1.432 0 5.204 3.698 7.094 4.284 6.325 1.959 6.34 0.602 10.745 5.747 2.261 2.64 2.127 7.69 5.217 9.509 1.521 0.896 5.57 0.922 6.05 2.926 1.063 4.443 1.061 6.377 5.843 8.15 2.342 0.869 2.096-2.14 4.799-1.463 2.466 0.616 2.766 0.562 5.112-0.105 0.302-2.137 3.968-7.674 0.834-8.464 0-0.956 1.556-3.364 2.086-4.179 1.724-2.643-1.358-4.041 3.443-6.165 3.042-1.346 7.47 0.994 10.433 0.313 3.342 3.348 5.994 4.494 9.807 6.897 2.847 1.793 5.574 4.158 8.241 6.269 2.854 2.26 4.233 1.477 2.712 5.12-0.902 2.159 0.165 3.331 1.031 4.745h1080.4l-2.908-19.166c-1.124-1.649-1.213-5.41-0.734-7.314 0.192-0.047 0.161-0.018 0.208-0.209 1.479 0 3.939-1.412 4.068-3.134 0.399-5.313 7.516-5.572 6.155-10.972-1.429-0.354-1.982-0.796-1.982-2.403l-3.338-10.658-5.425-0.313-5.32-21.107-4.173 1.045-0.522 4.597-3.13 0.418-4.382-3.971c-5.298-7.817-11.442-15.389-15.544-23.406-2.423-4.734-5.293-5.021-5.008-10.658 0.335-6.641 2.197-11.415 0.313-18.285 0.081-1.5-3.49-14.669-4.172-14.838-0.139-0.554-3.896 0.018-4.799-0.209-1-4.035-0.36-6.448-4.59-8.568-2.028-1.016-5.819-5.015-7.825-5.015-0.251 0.76-1.09 1.632-1.252 2.299-3.918 0.553-9.223 0.382-12.936-0.523 0-2.176-1.71-9.765-3.756-10.449-4.036-1.347-8.351-4.671-11.58-5.747 0-5.869-0.48-11.402-1.878-16.822-1.296-5.021-4.923-10.151-4.486-15.465 1.839-10.728-6.932-33.894-20.447-30.407-4.547 1.173-4.042 0.959-5.842-3.447-2.113-5.173-8.715-1.667-9.181-9.927-0.411-7.312 1.498-13.568-0.938-20.898 0-0.345-0.015-0.718-0.043-1.113h-1005.6c-3.652 0.501-6.888-1.244-7.987 4.351z" fill="#FCDC04"/>
	<path d="m459.4 575.16c1.122 4.262-3.273 4.448 2.608 8.255 2.929 1.895 6.673 3.404 9.389 5.538 2.56 2.013 3.368-0.472 4.069-2.508 1.445-4.195 6.518 1.402 8.763-0.523 2.266-1.944 7.626-4.179 10.641-4.179l-0.522 20.689 12.519 5.642 18.153 13.479-0.209 10.032-22.326 32.496-55.292 68.546-90.344 71.681-29.479 35.891h224.97c0-137.7 111.63-249.33 249.33-249.33s249.33 111.63 249.33 249.33h451.06c0.045-1.221-0.253-2.437-1.418-3.605-2.221-2.227-5.425-5.542-5.425-8.672 2.529-0.637 4.382-0.587 4.382-3.762 0.264-0.066 0.171-0.046 0.208-0.313 3.578-0.898 6.343-2.299 10.641-2.299 1.175 0 2.402 0.313 3.547 0.313 3.878 0 1.318-0.793 0.835-2.508-0.588-2.084 4.358-19.443 5.633-21.629l7.407-8.777 4.798 0.313 10.746-6.061 13.145-25.599 1.042-14.102 10.224-55.588-13.354-18.813-1.148-20.584-9.281-41.901-5.02-33.079h-1080.4c0.304 0.494 0.583 1.019 0.743 1.627z" fill="#D90000"/>
	<path d="m894.79 1251.6l-1.095-0.941c-2.622 0.466-4.043-0.959-6.103-2.194-1.815-1.087-2.224-0.157-4.173-0.104-0.395 0.011-1.479 0.011-1.513 0.574-0.081 1.343 1.882 1.421 2.869 1.567 1.078 0.16 1.71 0.238 2.452 1.045 0.938 1.023 2.272 1.202 3.599 1.202 2.034 1e-3 2.849 1.081 3.964-1.149z" fill="#FCDC04"/>
	<path d="m873.14 1330.3c0.657-0.53 0.897-1.188 1.148-1.881 0.716-1.985 4.283-1.719 4.903-4.075 0.132-0.505-0.208-0.714-0.208-1.149-0.365-0.061-0.686-0.112-1.148 0.208-0.525 0.363-1.269 0.92-1.669 1.359-0.816 0.896-1.359 0.804-2.4 1.149-0.848 0.283-1.75 1.167-2.295 1.88l-1.044 1.986c0.264 1.063 2.119 1.002 2.713 0.523z" fill="#FCDC04"/>
	<path d="m863.65 1324.9l-4.59 2.404c0.647 1.294 1.584 0.981 2.608 0.522 0.759-0.34 1.741-0.134 2.399-0.522 1.131-0.668 1.502-1.753 2.086-2.927 0.607-1.218 1.252-1.604 1.252-3.03 0-2.026-1.844-2.296-3.026-3.553-0.618-0.658-0.976-1.149-1.668-1.672-0.348 1.063 0.067 2.856 0.522 3.971 0.585 1.438 0.746 3.153 0.417 4.807z" fill="#FCDC04"/>
	<path d="m928.96 1226.2c-0.084 2.117 1.279 2.978 1.825 4.702 0.535 1.691 0.815 3.186 1.826 4.649l1.095 0.418c2.493 0.773 1.608-1.154 2.451-2.56 1.318-2.2 2.722-0.405 3.756-1.515 0.516-0.553 1.047-2.487 1.2-3.239 0.323-1.585 2.102-1.831 2.034-3.396-0.127-2.92 0.1-3.788 2.504-5.695 3.834-3.043-1.275-2.812-1.617-6.112-0.172-1.669-0.988-2.438-1.825-0.419-0.821 1.977 0.109 4.206-2.347 2.612-2.188-1.418-4.396 0.03-3.391 2.508 1.13 2.785-4.53 2.301-3.286 4.91 0.477 1 2.15 1.931 2.19 3.082 0.129 3.705-6.334-1.981-6.415 0.055z" fill="#FCDC04"/>
	<path d="m917.64 1251.6c-2.758 0.645-1.17-1.197-2.555-2.195-0.434-0.313-0.662 2.287-1.826 2.456-1.313 0.19-1.282-2.626-2.555-2.821-1.524-0.233-1.052 3.208-3.704 3.71-0.946 0.179-2.123 0.446-3.025 0.783-3.479 1.303 4.843 0.516 5.112 0.523 2.273 0.061 0.272 2.778 4.121 1.933 4.115-0.903 4.717 3.2 7.667 3.552 2.915 0.349 2.01-5.026 5.529-5.381 0.622-0.063 3.677 0.563 4.225 0.836 1.301 0.651-3.043 3.216-3.495 4.023-1.33 2.379 4.314 0.209 6.155 0.209l3.338-0.262c3.093-0.77 5.648-3.248 7.616-5.59 1.184-1.409 3.216-4.957 2.66-6.844-0.521-1.771-1.895-2.372-2.973-3.709-0.599-0.743-3.679 3.315-4.068 3.917-0.388 0.599 0.338 2.249-0.313 3.292-0.762 1.217-2.396-1.07-3.077-1.567-1.3-0.948-3.007-0.227-1.356-2.56 0.893-1.263-2.654-0.403-2.191-2.038 0.504-1.781-0.44-5.568-1.513-7.053-0.476-0.668-2.15-3.748-2.973-3.866-0.094-0.653-1.355-0.688-1.721-0.261-0.899 1.051 2.749 5.312 2.451 7.367-0.517 3.565-2.37 0.854-2.712-1.255-0.521-3.201-2.4 0.114-2.4 2.038 0 0.542-0.431 4.907-2.086 3.396-1.182-1.078 0.139-4.164-2.139-3.814-3.631 0.557-1.235 3.218 0.208 4.284 2.535 1.871 0.211 6.285-2.4 6.897z" fill="#FCDC04"/>
	<path d="m887.96 1314.2l-1.774 0.104c-2.888 0.394-2.926-0.324-4.902-1.776-2.84-2.085-3.28 1.782-4.173 3.553-0.252 0.502-1.165 2.7-0.313 2.926 2.049 0.543 3.186-2.374 5.843-1.044 0.528 0.264 0.893 0.282 1.356 0.627 1.9 1.417 3.135 0.83 4.486-1.045 0.585-0.813 1.246-1.652 1.774-2.507 0.788-1.286-1.746-1.046-2.297-0.838z" fill="#FCDC04"/>
	<path d="m789.16 1278.6c1.22 0.455 3.482 1.14 4.799 0.522 0.242-0.114 0.596-0.374 0.73-0.417 0-0.214 0.073-0.463-0.104-0.523 0-2.574 3.234-2.168 4.799-3.135 1.528-0.945-3.013-2.639-3.339-2.821-1.053-0.587-1.948-1.688-3.13-1.776-2.25-0.168-1.356 4.523-1.356 5.746l-2.4 1.986v0.418z" fill="#FCDC04"/>
	<path d="m877.84 1286c-0.697-0.131-1.043 0.286-1.461 0.836-0.537 0.704-1.402 1.59-1.356 2.508l1.304-0.209c1.112-0.465 1.506-0.359 2.608 0.209 0.565 0.291 1.311 0.871 1.878 1.044 1.864 0.57 0.522-0.774 0.522-1.672 0-1.042 0.682-1.648 1.147-2.507 0.718-1.329-2.1-0.368-2.608-0.262-0.924 0.193-1.153 0.22-2.034 0.053z" fill="#FCDC04"/>
	<path d="m822.96 1339.2c0.77-0.034 1.43-0.367 2.19-0.104 1.081 0.372 1.209 1.672 2.504 1.672 1.153 0 1.339-1.249 0.731-2.09-0.641-0.889-1.57-1.788-2.295-2.612-1.063-1.206-2.914-0.432-4.486-0.313-1.318 0.101-2.427 0.654-3.756 0.731l-0.731 1.463c-1 0.666-1.327 3.718-0.73 4.806 0.558 1.016 2.881 3.655 4.173 2.508 0.791-0.701 0.789-1.527 0.208-2.403-0.539-0.813-1.842-1.83-0.73-2.821 0.93-0.832 1.697-0.783 2.922-0.837z" fill="#FCDC04"/>
	<path d="m803.87 1343.5c0.411 0 1.33-1.595 1.982-1.986 1.558-0.932 4.636-0.734 5.425-2.507 0.687-1.546-3.496-2.89-4.173-4.075l0.522-2.299c0-1.889-0.418-3.717-0.418-5.538-0.62 0.102-1.082 1.254-2.086 1.149-0.848-0.088-2.129-5.11-3.234-1.672-0.734 2.285-2.58 2.837-3.547 4.911-1.351 2.899 4.299 3.161 4.799 5.119 0.328 1.285 0.104 2.658 0.104 3.971 0 1.066 0.626 2.1 0.626 2.927z" fill="#FCDC04"/>
	<path d="m839.34 1331.1c1.5 0.852 5.939 1.49 6.99-0.209 0.988-1.596 0.64-1.045 2.295-1.045 1.542 0 2.817-1.949 0.939-1.567-1.242 0.252-1.774-0.099-2.295-1.15-0.864-1.736 0.377-1.156 1.46-1.88 1.103-0.736 1.697-1.693 3.234-2.09 0.894-0.231 3.013-1.126 2.295-2.299-0.788-1.285-2.451-0.313-3.651-0.313-1.141 0-3.901 5e-3 -4.486 1.044-1.726 3.069-3.35-1.392-4.903-1.776 0 2.607 1.374 5.535-0.938 7.419l-0.105 1.776c0.465-0.233 3.015-0.699 1.983 0.418-0.423 0.458-3.021 1.557-2.818 1.672z" fill="#FCDC04"/>
	<path d="m830.68 1322.4c-0.387-0.907-0.427-2.043-1.356-2.404-0.697-0.27-1.444-0.981-1.878-1.671-0.214-0.341-1.39-1.526-1.774-1.672-0.135-0.052-1.034 1.311-1.356 1.567-2.087 1.665-1.426 1.823 0.104 3.867 1.997 2.669 3.07 3.582-0.418 5.329-3.445 1.725-2.197-2.02-4.59-2.612-0.65 1.299-2.031 2.602-0.313 4.075 1.674 1.437 7.981-0.236 9.911-1.045 1.161-0.488 2.365 0.019 3.546-0.208 1.003-0.192 1.954-0.283 2.921-0.523-0.286-1.162-5.842-0.807-5.842-2.717l1.045-1.986z" fill="#FCDC04"/>
	<path d="m804.81 1367.8c0.807-0.361 1.673-0.098 2.608-0.627 1.074-0.607 0.849-2.335 0.626-3.239l-0.835-1.776c0.219-1.309-0.552-2.203-0.834-3.343-0.803-0.202-0.9 0.307-1.356 0.94-0.283 0.394-1.064 0.913-1.148 1.254-1.287 0.186-2.945 1.904-2.504 3.239 0.215 0.651 1.916 1.823 1.148 2.09-0.99 0.343-2.003 0.285-2.817 1.15-1.431 1.519-0.942 2.125 0.418 3.135 0.403 0.3 1.481 1.836 2.087 2.893h1.052c0.358-1.903-6e-3 -5.016 1.555-5.716z" fill="#FCDC04"/>
	<path d="m813.47 1286.4c-1.474-4.165-4.203-10.825-9.285-11.494-5.781-0.763-4.358 7.653 1.668 5.747h1.669c1.177 0.503 3.085 2.022 3.234 3.343 0.2 1.778 2.191 4.276 2.191 5.33-1.831 0-3.57-0.314-5.425-0.314 0 0.655 3.352 3.798 4.173 3.867 1.662 0.138 1.944-1.155 2.19-2.404 3.011 0 0.831 7.472 4.173 8.255 5.652 1.324 5.529 0.128 5.529-4.911-2.18-0.54-3.75 0.307-5.843-1.359-1.382-1.104-3.697-4.428-4.274-6.06z" fill="#FCDC04"/>
	<path d="m808.15 1351.8c1.28-0.046 2.519 0.06 3.13 1.254 0.66 1.291 1.45 1.526 2.817 0.731 0.842-0.488 3.13-3.58 3.13-4.597l-1.983-0.732c-1.455-0.311-1.974-0.284-3.338 0.209-1.093 0.396-1.385-0.074-2.4-0.523-0.516-0.228-1.314-0.63-1.878-0.313-0.397 0.224-0.228 0.854-0.626 1.254-0.556 0.557-1.585 0.82-1.982 1.463-1.303 2.113 2.51 1.276 3.13 1.254z" fill="#FCDC04"/>
	<path d="m853.74 1340.9c-1.493 0.748-3.662 0.277-5.424 0.627-0.307 2.146 0.083 1.881 2.92 1.881 6.113 0 1.187 2.47 1.461 5.746 0.079 0.947 1.263 1.859 0.73 2.822-0.626 1.128-2.173 2.032-3.025 3.03-0.82 0.961-0.587 2.04-1.669 2.822-2.041 1.473-4.798 0.854-4.798 4.389 0 2.393 2.809-0.012 5.008 0.732 1.761 0.595 5.422 0.461 6.05-1.881 0.564-2.099-0.789-3.711 0.73-5.955 2.588-3.826 6.364 1.282 6.364-5.12 0-2.878 0.273-2.562 2.19-4.806 1.112-1.303 0.162-2.299 1.669-3.344 4.701-3.258-1.06-3.402-1.774-5.016-0.586-1.322 3.148-4.302 0.73-4.911l-1.252-1.567c-1.163-0.357-3.367-1.943-2.92 0.836 0.329 2.047 2.004 3.571-0.209 5.329-1.004 0.797-2.674 0.361-3.026 2.195-0.128 0.666 1.28 2.657 1.774 2.821-0.044 0.179-0.104 0.213-0.104 0.418-2.244 0.74-2.586-2.472-5.425-1.048z" fill="#FCDC04"/>
	<path d="m1185.7 1256.3c-1.964 0.731-1.55 4.628 0.418 4.807 1.324 0.121 1.907-0.571 3.025-0.94 1.298-0.43 0.999 1.057 1.46 1.776 0.565 0.88 1.491 1.162 2.4 1.463 1.383 0.46 5.611 1.456 6.155-0.313 0.466-1.519 0.73-1.405 1.982-2.195 2.427-1.533-0.258-5.711-1.148-7.314-0.332-0.597-1.558-3.971-1.878-3.971-0.195 0.793-0.987 2.681-1.46 3.448-0.755 1.226-2.048 0.941-3.339 0.941l-0.73 1.776c-2.111 0-4.924-0.207-6.885 0.522z" fill="#FCDC04"/>
	<path d="m1188.1 1224.1c-1.473 0-3.053-0.328-4.486-0.627-1.459-0.303-1.477-1.293-2.191 0.418-0.522 1.248-0.734 2.414-1.356 3.657l-3.442 1.88c-0.236 0.707-0.701 2.526 0.208 2.822 0.715 0.233 2.08 0.05 2.816-0.104 1.353-0.283 1.974-1.986 3.651-1.986 0.828 0 1.467 0.286 2.295 0.104 1.714-0.374 0.73-0.523 0.73-1.88 0-0.596 3e-3 -1.444 0.209-1.986 0.317-0.832 1.389-1.583 1.566-2.298z" fill="#FCDC04"/>
	<polygon points="1193.3 1254 1193.3 1254" fill="#FCDC04"/>
	<path d="m120.87 1116.4l-14.397 61.858c-4.276 1.101-8.125-2.126-12.623-0.732-3.191 0.988-0.155 4.209-4.59 6.688-7.793 4.356-4.122 10.661-8.242 16.406-5.884 8.202-1.924 17.804-0.208 26.749 1.149 5.987 7.755 2.519 1.461 9.3-3.497 3.769-1.482 7.749-1.983 11.808l-21.073 106.26c3.194 4.308 7.381 3.46 5.425 9.822-0.913 2.973 1.557 5.436 0.752 8.949h604.21c0.776-1.494 1.405-3.18 1.786-5.188 1.15-6.057 8.3-9.102 12.936-13.375l22.221-20.48c2.206-2.034 2.338-7.127 3.756-8.15 0.911-0.659 3.934-0.475 3.756-2.194-0.231-2.231-2.087-4.024-0.522-6.374 4.012-1.608 7.771-7.818 11.163-8.777 5.451-1.541 3.234 4.491 3.234 6.583 4.53-0.642 0.626-5.526 0.626-8.15-2.849-0.944 3.21-6.06-4.382-6.06-1.284-5.204-0.589-3.482-5.321-5.851-7.939-3.976-2.862-9.68-5.424-17.032-2.735-7.849-7.283-1.167-11.789 2.09-7.471 5.398-0.784 8.655 0.521 14.107 3.061 12.787-16.572 6.818-10.536 0.313 3.286-3.54 2.712-4.422 2.712-8.986 0-4.083 2.1-3.543 0.626-7.314-1.126-2.883 4.586-0.344 1.878-4.493-1.031-1.578 3.309-2.578 3.756-4.598 0.476-2.151-1.48-3.428-1.46-3.448 4.79-4.79 1.021-2.157-1.669-0.209-4.219 3.056-6.623-5.986-7.511-8.881-0.738-2.401-0.208-4.831-0.208-7.314 0-1.392-0.71-1.893-1.774-2.508-1.886-1.09-1.079-2.948-1.565-4.911 0.827-4.427-3.348-7.016-5.946-9.613-1.985-1.985-3.106-4.755-4.591-6.896-0.734-1.06-4.258-0.805-5.529-1.254-7.998-2.831-12.199-12.006-20.238-15.36-2.007-0.755-2.93-1.777-5.215-2.195-4.039-0.74-6.469-0.158-10.328-2.09-4.092-2.049-6.954 0.119-10.224 3.135-1.362 1.257-3.041 2.948-3.442 4.702-0.316 1.381-1.321 2.508-2.817 2.508-0.468-1.898 2.17-6.949 3.026-8.882 1.497-3.38 4.939-3.053 7.511-4.597 4.351-2.61 8.987 3.418 13.666 1.985 3.085-0.946 4.86-2.728 8.346-2.09 4.091 0.748 6.193 2.749 9.911 4.284 7.308 2.513 11.605 8.299 17.735 11.911 2.246 1.323 3.391 0.846 6.051 0.732 2.669-0.115 2.191 0.498 2.191 2.403 0 3.988 14.088 7.201 15.648 13.27 1.636 6.368 4.798 10.603 4.798 17.659l0.835 3.03c3.248-1.68 4.565-4.182 8.45-4.389 5.743-0.306 12.055-0.299 17.422 1.044 1.44 0.36 9.275 1.463 5.633-1.254-1.973-1.471-3.148-3.803-3.964-5.956-1.74-4.593-4.683 0.762-8.763 0.104-2.798-0.45-2.713-1.147-2.713-3.866 0-2.193-1.356-3.39-1.356-5.329 5.702 0 12.555 4.122 18.256 0.313 1.557-1.04 0.443-4.309 1.356-5.329 0.427-0.476 6.136-1.568 6.99-1.568 0 2.483-3.841 4.001-3.651 7.001 0.111 1.752 8.045 5.538 9.702 5.538 2.063 0 3.672 0.144 5.217 1.568 1.98 1.828-0.228 4.505 4.798 2.298 5.95 0 7.161 3.585 10.537-1.671 1.507-2.346 3.634-5.444 4.591-7.941 0.228-0.593-7.214-16.264 2.712-10.763 6.427 3.562 4.379 2.566 7.303 8.568 2.349 4.824 13.714-6.149 11.371-9.404-1.491-2.07-2.061-5.31-4.695-6.478-1.904-0.846-4.694-2.796-4.694-5.12 2.25-0.567 5.999 2.807 8.658 3.657 2.393 0.765 6.437-0.388 7.72 2.195 1.702 3.422 5.731 1.604 9.181 0.835 5.331-1.187 2.984 2.628 3.651 5.33 4.291 0.846 3.359-12.939 2.713-15.464-0.694-2.716-6.026-6.639-1.565-9.404 3.2-1.984 4.606 6.935 11.789 4.283 2.425-2.697 2.601-1.076 5.112-2.821 4.27-2.965 2.077-2.999 3.026-7.001 0.414-1.746 3.442-2.975 3.442-1.254 0 4.176-2.816 7.132-2.816 11.284 0 4.988-5.678 2.977-6.468 6.165-2.02 0.501 3.812 5.929 4.486 6.478 0.467 0.38 2.45-1.233 2.921-1.567 2.152-1.527 4.426 1.126 7.094-0.209 1.924-0.964-0.688-2.391-0.939-3.553-0.367-1.699 3.321-3.524 3.965-5.225 0.434-1.144 0.292-5.198 2.295-4.702 1.499 7.471 0.443 8.673 8.972 8.673 0.073-0.296 0.258-0.305 0.521-0.419 0-1.666-1.008-6.235-0.208-7.314 1.329-1.79 2.323 1.515 3.339 1.881 3.461 1.249 2.131 1.012 4.276 3.448 1.676 1.904-0.834 3.066-0.834 5.224 1.006 0.253 6.009-1.451 7.303-1.776 0-2.234-3.863-4.421-4.277-7.836-0.372-3.062-2.688-2.764-3.86-5.12-3.431-6.899 2.378-3.426 5.007-0.94 1.135 1.072 4.078 2.51 5.528 1.463 1.912-1.382-2.715-4.331-3.338-5.329-3.875-8.874 4.903-3.791 4.903-7.733 0-1.014-8.986-3.325-10.745-3.761 1.219-3.719 9.645-0.011 5.007-8.777-2.653-5.015 13.854 0.035 13.145-10.136-0.325-4.657 5.842-4.119 5.842-10.135 0-9.706 11.128-11.894 7.094 0.208-1.312 3.934-10.271 4.856-4.591 10.553 2.016 2.023 4.193 1.001 5.321-1.254 2.503-5.007 6.44 0.118 1.668 5.538-2.25 2.554-8.191 7.014-3.964 10.763 3.313 2.937 8.546-0.233 10.641-2.508 1.283-1.395 3.882 0.388 4.799-1.567 1.356-2.893 0.281-9.076 3.86-2.508 1.061 1.949 7.866 2.082 2.086 5.015-4.167 2.116-2.996 4.675-5.738 7.21-3.238 2.993-3.531 0.021-6.155 1.463-6.555 3.605-0.708 3.448-8.033 3.448-5.616 0 1.979 3.662 0.835 4.806-2.14 2.14-3.662 11.559-0.105 6.061 3.307-5.112 6.05 0.627 9.702 0.627 0.682-2.762 5.058-8.464 8.451-8.464 0.258 1.044 2.501 1.95 3.442 1.88 1.001-0.075 0.881-6.853 2.921-3.657 4.806 7.524 13.667-7.436 13.667-7.628 2.566 0 0.945 5.682 6.154 2.09 1.845-1.274 12.334 1.628 8.346-1.254-0.724-0.523-2.295-7.735-2.295-9.927 1.51 0 8.41 9.036 6.364 0.418-0.915-3.856 3.651-6.069 3.651 0.627 8.679 0 2.212 3.165-0.313 6.687-2.688 3.748 4.173 5.238 4.173 8.464-3.432 0.85-10.308 1.346-2.086 2.926 1.92 0.369 1.031 6.511 1.148 8.464 0.347 5.813 11.501 2.975 16.065 1.044l12.102-5.12c3.927-1.661 2.202-7.377 3.546-6.374 8.278 6.172 6.808-3.347 8.137-4.075 1.623-0.889 6.931 2.943 5.947-2.194-0.892-4.662-2.714-5.331 4.068-7.941 4.48-0.998 5.667-2.452 5.947-6.478 0.109-1.56 2.173-4.075-0.626-4.075-3.072 0-4.498 0.34-7.094-1.567-1.666-1.223-2.722-1.312-4.486-2.195-1.608-0.805-1.819-2.981 0-3.448 1.332-0.342 2.684-0.994 3.965-1.254 3.236-0.659-1.812-4.948 3.025-5.956 2.721-0.567 2.287 2.276 4.382 2.403 1.422 0.087 8.45-0.629 8.45 1.359 0 1.259 0.574 1.954-0.626 2.611-1.195 0.654-1.79 1.484-2.608 2.508 0.659 1.709 0.229 6.452 3.338 4.075 1.171-0.896 4.069-1.444 4.069-3.135 0-1.799-0.797-2.764-1.252-4.493-0.242-0.922 3.285 0.636 4.172 0.523 2.199-0.281 2.984-7.066 2.296-8.882-2.413-6.361-3.193-14.253 6.468-12.224 3.381 0.709 3.152-3.518 5.007-4.911 1.601-1.203 4.277 1.198 4.903-1.254 0.644-2.524 19.467-8.571 16.17-12.748-3.462-4.388-15.533-2.472-19.926-6.373-4e-3 -0.078-1.516-3.551-0.994-4.226h-923.48l-8.279 9.558z" fill="#FCDC04"/>
	<path d="m1178.1 1217.5c-0.789 1.122-1.904 0.945-2.921 1.567-1.236 0.757 0.133 2.578 1.461 1.985 0.681-0.305 0.629-1.108 1.252-1.463l1.043-0.313c0.636-0.713 2.132-1.256 2.295-2.195 0.145-0.839-0.101-1.557-0.73-2.09-1.505-1.273-1.921 1.829-2.4 2.509z" fill="#FCDC04"/>
	<path d="m1096.1 1112.3c3.518 3.525-0.471 5.117-3.547 6.478-1.136 0.503-6.99-4.718-6.99 1.88 0.973 0 1.688-0.522 2.608-0.522 2.453 0-1.716 3.248-1.252 5.12 1.512 0 4.015-2.075 5.633-2.717 1.65-0.653 9.077-0.311 9.077 1.986 0 1.289-2.504 1.507-2.504 4.493 0 2.738 1.949 4.037 4.173 2.403 3.778-2.774 10.861 6.199 13.144 4.075 3.166-2.943 0.647-8.006 5.634-8.673 3.171-0.425 1.9-2.458 4.798-3.761 0.312-0.139 4.523-0.153 4.59 0 0.734 1.648-5.356 1.855-4.172 5.433 0.533 1.61-0.868 2.09-1.252 3.553-0.443 1.682 1.387 1.689 1.564 3.135 4.334 3.168 7.834-4.789 5.633 2.403-1.001 3.272 14.13 8.037 5.425 11.494-4.079 1.62-5.345-3.713-6.468-2.821-4.009 3.182-2.035 1.88-5.947 1.88-0.153-0.464-1.856 1.613-2.816 1.359-1.936-0.513-1.083-1.946-1.461-3.448-0.338 0-0.704-0.215-0.834 0.313-2.154 0.534-4.51-2.194-6.781-2.194-4.473 0 4.471 8.233 5.738 9.299 5.525 4.649 3.352 2.627-2.4 3.762-1.093 4.41 6.363 6.436 9.181 7.21 1.756 0.482 9.645 16.94 7.511 6.478-0.653-3.201 2.299-8.755 3.651-3.239 1.438 5.87 3.781 1.463 7.407 1.463 0.373 1.505-1.846 6.368-0.626 6.269 2.598-0.212 1.886-6.23 6.364-5.12 1.137 4.609 1.011 6.771 7.407 5.851 0.047-0.191 0.018-0.161 0.208-0.208 0.364-2.58-2.365-5.284 0.939-8.255 1.425-1.28 3.138 1.692 4.798 0.418 1.484-1.14 7-4.016 7.72-4.911 1.876-2.334-1.252-6.496-1.252-9.299 4.835-1.208 0.098-5.742-0.731-7.21-0.952-1.688 1.836-6.996-1.147-7.418-0.276-1.924-3.861-2.61-4.277-3.866-1.442-4.357 4.445-8e-3 4.486 0 3.25 0.682 4.466-1.977 6.468-1.672 0.819 0.124 1.368 3.332 2.713 3.552l8.867 1.463c1.402 0.23 2.862-3.788 5.738-3.971 3.482-0.221 5.239 2.116 10.015 1.255 2.086-0.376 6.148 0.371 8.45 0.836 0.665 2.64-15.781 6.272-16.065 7.418-0.469 0.116-5.328 8.758-2.504 7.628 2.146-0.86 11.371 0.42 11.684 1.986 1.208 0.4-3.148 3.029-3.443 3.343-1.484 1.578 0.017 7.454-2.296 7.628-3.644 0.273-2.61 2.806-1.564 5.433 1.038 2.608 6.289 0.105 9.18 1.15 0.921 0.332 0.343 4.878 3.131 2.09 1.134-1.134 1.321-4.484 3.546-3.135 7.563 3.678 2.921-1.512 2.921-5.434 5.765 0 4.218-1.381 3.13-4.91-1.789-5.803 3.415 0.489 4.382 1.671 2.395 2.927 21.176 18.677 25.454 15.464 2.617-1.966-0.237-10.472 5.634-5.434 5.54 4.752 2.276-8.908 3.86-11.284 1.485-2.228 3.704 1.802 5.842 0.732 0.951-0.475 4.208-2.051 4.903-2.612 0.609-0.491 0.932-3.637 1.774-4.807 0.579-0.803 3.276-3.869 3.964-1.88 1.658 4.794-1.763 1.983 3.547 5.329 0.749 0.471 1.325 0.893 1.755 1.281l3.569-4.521c-0.383-4.123 1.058-3.219 3.651-5.016 1.21-0.838 2.833-1.536 1.982-3.239-0.579-1.158 2.52-2.086 2.921-3.657 0.338-1.325 0.123-2.524 1.043-3.553 1.156-1.289 3.163-1.722 3.964-3.239 2.063-3.909 9.911-6.968 9.911-11.703 0-2.913 2.386-3.262 1.252-6.687-0.926-2.797-3.067-5.127-3.338-8.15 0.048 0.258-0.241-0.572-0.635-1.925h-209.77c-0.467 1.565-0.248 4.091 1.134 5.477z" fill="#FCDC04"/>
	<path d="m1219.6 1190c-1.577 1.433-4.359-1.055-5.843 1.62-1.194 2.15-2.054 4.661-1.46 7.053 0.689 2.775 4.657 1.449 6.781 1.985 0.897 0.226 1.092 1.844 2.4 0.94 0.574-0.396 1.65-2.17 2.138-1.463 0.913 1.323 0.825 3.129 2.921 2.717 1.423-0.28 3.332-0.586 4.277-1.776 0.774-0.973 2.954-2.103 3.599-0.209 0.078-0.078 0.11-0.16 0.157-0.261l1.825 0.157c2.313-1.496 6.414 1.366 9.442 0.836 3.109-0.545-1.889-1.94-1.982-2.978-0.143-1.59-2.786-0.721-3.651-0.418-1.131 0.395-1.583-0.657-2.4-1.045-1.13-0.539-2.204-0.256-3.391-0.47-1.423-0.257-2.074-1.325-3.13-2.142-1.296-1.004-2.661-0.797-4.068-1.62-1.876-1.099-2.534-2.918-3.86-4.44-2.688-3.087-2.316 0.206-3.755 1.514z" fill="#FCDC04"/>
	<path d="m1050.1 1179c1.083-2.838-4.56-0.351-5.321-0.575-1.465-0.433-0.86-2.245-2.555-0.888-3.984 3.193 5.231 3.884 1.356 5.329-2.536 0.945-3.06 0.586-1.096 2.664 0.82 0.868 0.692 1.72 0.783 2.822l0.261 2.56c0.239 0.9 1.378 3.837 2.66 2.873 0.788-0.591-0.208-2.26-0.469-2.926-0.851-2.159 0.029-4.963 1.095-6.843 0.972-1.715 2.604-3.23 3.286-5.016z" fill="#FCDC04"/>
	<path d="m1040.1 1189.9c-0.727-0.784-1.676-0.86-2.504-1.463-0.473-0.345-0.82-1.011-1.2-1.463-1.602-1.9-2.05 0.707-3.026 1.62-0.146 0.138-0.656 0.427-0.677 0.627-0.085 0.784 3.87 2.44 4.59 2.351l0.313 1.985c0.373 0.215 2.869 0.635 2.869 0 0-0.772-0.508-1.28-0.261-2.09 0.15-0.493 0.291-1.141-0.104-1.567z" fill="#FCDC04"/>
	<path d="m974.07 1224.8c0.766 0 1.005 0.889 1.513 0.889 1.148 0 1.5-0.511 2.086-1.359 1.039-1.503 1.997-2.708 3.912-3.187 0.75-0.187 1.825-0.678 1.825-1.567 0-1.16-0.501-1.22-1.513-1.254-0.936-0.032-1.509-0.545-2.555-0.365-1.614 0.278-2.704 1.193-4.121 1.88-0.717 0.348-1.661 0.104-2.452 0.104l-1.356 1.411c-1.213 0.91-1.634 2.738-0.417 3.761 1.058 0.889 2.034-0.313 3.078-0.313z" fill="#FCDC04"/>
	<path d="m1022.9 1199.2c0 1.813 1.896 1.985 3.077 0.992 0.8-0.671 0.781-1.321 1.043-2.298 0.524-1.944 6.569-0.831 5.008-3.866-0.819-1.592-3.359-0.789-4.695-0.262-1.028 0.406-2.001 0.891-3.13 0.732-1.252-0.178-2.159-0.993-3.495-0.993-1.604 0-0.948 1.828-0.104 2.56 0.835 0.726 1.77 1.108 2.243 2.194l0.053 0.941z" fill="#FCDC04"/>
	<path d="m1154.5 1186.7c-0.433-0.647-4.103-0.417-5.008-0.417 0 1.477 2.93 2.09 4.068 2.09 2.049 0 3.44-0.441 5.425 0.313 1.113 0.422 0.988 1.193 1.148 2.194 0.193 1.214 0.693 2.514 1.67 1.045 0.792-1.193 0.791-2.749 0.522-4.075-0.349-1.719 0-3.412 0-5.225 0-1.983-1.378-1.254-2.817-1.254-0.915 0-1.133-0.218-1.878-0.523-1.351-0.552-1.252 3.569-1.252 4.493l-1.878 1.359z" fill="#FCDC04"/>
	<path d="m1074.4 1204.7c-2.313 0.13-2.954 1.821-5.529 1.254-1.926-0.424-1.669 2.286-1.878 3.552-0.243 1.479-1.484 3.317-0.208 4.702 0.791 0.86 1.488 1.887 2.086 2.926 0.885 1.54 1.662 5.705 4.381 2.822 1.965-2.083 2.198-5.274 4.799-7.001 0.917-0.607 6.486 0.974 5.738-0.94-0.315-0.805-3.207-0.832-4.068-1.045-1.458-0.362-2.363-1.739-1.252-3.135l-0.209-2.403c-1.376-0.066-2.524-0.808-3.86-0.732z" fill="#FCDC04"/>
	<path d="m1085.9 1137.2c-10.629 0-21.348 0.315-28.898 9.927-4.568 6.452 0.164 5.456 5.217 9.196 5.318 3.938 14.178 9.055 8.971 16.196-0.593 0.814-3.915-1.195-5.842 0-4.333 2.686-1.856-4.37-6.677-3.343-4.392 0.936 2.043 1.727 1.46 5.538-0.302 1.971 0.234 4.283 2.608 4.283 1.817 0 1.877-4.074 4.277-4.074 0.878 0 5.189 4.057 5.738 4.91l4.487 7.001c0.262 1.578 0.4 4.893 1.564 6.061 1.039 1.043 1.558-1e-3 1.878-1.044 0.441-1.444 0.854-2.581 1.67-3.762 0.092-0.134 2.196-4.837 2.712-2.822 0.34 1.331-0.291 3.177 0 4.702 0.136 0.707 0.518 2.203 0.313 2.822-0.477 1.445-2.509 2.485-0.939 3.762 1.486 1.21 1.198 2.665 2.399 3.866 1.268-0.723 0.579-1.722 2.191-0.836 0.569 0.312 0.579 1.583 0.73 2.195 1.083 0.268 3.442-1.928 3.442-3.031-2.024-0.402-5.32-1.859-5.32-4.284 0-1.001 0.908-1.904 1.148-2.926 0.244-1.036-0.075-3.251-0.418-4.284l0.208-1.672c0-2.63 7.524-5.685 3.13-6.269-3.251-0.432-3.338-5.506-3.338-8.673 0-1.983-1.792-5.187-1.46-6.27 1.693-5.529 5.567 1.648 6.468 1.149 2.04-1.128 1.157-1.579 3.651-0.94 1.733 0.443 0.84-2.734 1.044-3.657 0.636-2.878 4.545 2.209 4.902 2.09 2.279-0.759 1.114-4.576 1.252-6.374 0.218-2.835 4.534-2.34 3.235-6.583-0.867-2.829-4.277-5.504-3.443-8.672 0.773-2.933-6.326-8.139-7.824-7.523-2.054 0.843-5.109 0.876-3.965 3.762 2.464 6.216 8.244 1.128 9.807 7.209 1.225 4.765-3.735 0.374-4.277 1.359-1.311 2.383-6.386 4.183-4.173 5.956 2.78 2.225 4.677 4.991 0 2.091-2.773-1.719-7.094 1.465-7.094-1.986 0-6.68-4.994-1.8-4.799-4.598 0.154-2.209 0.307-2.056-1.564-3.448-3.992-2.974 5.529-5.088 5.529-7.004z" fill="#FCDC04"/>
	<path d="m905.95 1229.2c0 1.073-0.499 1.515-1.617 1.306-0.939-0.176-1.742-1.097-2.713-1.097-0.488 0-0.349 0.751-0.261 1.097 0.375 1.47 0.723 2.019 2.191 2.508 0.575 0.191 1.01 0.252 1.46 0.679 0.577 0.546 1.428 0.365 2.191 0.365l-0.157-1.776c-0.218-0.622-0.353-2.893-1.094-3.082z" fill="#FCDC04"/>
	<path d="m1053.5 1107c4.525 3.023 5.146 0.692 7.862-0.151h-8.135c0.086 0.042 0.17 0.081 0.273 0.151z" fill="#FCDC04"/>
	<path d="m766.11 1368.1c1.307-5.336 2.763-1.567 5.843-1.567 0.356-2.53 2.723-2.052 3.13-3.239 0.37-1.075-4.276-2.721-2.191-3.239 5.34-1.327-3.377-6.897-0.208-6.897 2.418 0 4.79 4.012 4.59-1.149-0.174-4.473 7.409-0.796 9.494 0 1.332 0.509-1.991 2.302-2.504 2.717-1.25 1.013-1.252 4.163-1.252 5.746 1.455 0 3.211-5.631 5.216-4.91 0.851 0.306 0.761 3.584 1.669 4.493 3.216 3.216 4.093-7.259 5.528-5.642 1.509 1.698 3.455 3.356 4.487 0 0.594-1.935-1.186-3.607-2.191-5.12-0.758-1.141 0.835-5.658 0.835-7.418 0-2.774-2.702-4.979-3.651-7.837l-0.209-3.239c0.569-2.142-0.152-6.568 0.939-8.15 2.378-3.444 2.596-1.076 5.634-2.09 1.155-0.385 0.153-2.395 2.086-2.926 1.746-0.48 3.827-0.164 5.633-0.523 0.837-3.392-4.486 1.24-4.486-4.911-2.749-0.681-1.506-2.813-2.086-4.702-0.712-2.32-4.069 0.023-4.069 1.254 0 5.182-2.341 7.986-7.615 3.762-2.816-2.256-0.848-6.907-5.842-3.762-4.105 2.587-9.451-0.313-13.354 2.195-8.071 5.185-8.763-4.468-8.763-9.822 0-2.455 14.522-13.584 5.321-13.584-1.446 7.211-10.186-0.774-12.52 0.941-1.887 1.386-13.498-1.414-15.753-2.717-5.829-3.37-0.475 6.431-1.356 7.314-1.154 1.156-5.083 0.453-4.069 2.299 0.875 1.596 2.979 2.66 3.651 4.18 0.608 1.374 3.756 2.927 3.756 0.835 3.552-0.88 3.812-1.024 5.425 2.927 1.037 2.54 3.767 4.969 1.669 7.418-1.851 2.162-0.727 3.8 1.982 2.612 2.629 0.718 5.462 0.283 7.929 1.567 1.898 0.988 3.364 2.577 5.216 3.658 4.853 2.829 16.218-7.467 19.717 1.985 0.681 1.84-0.209 4.38-0.209 6.373 0 4.218 7.624-1.915 5.843 5.016-0.544 2.118-1.348 7.695-4.173 5.016-1.068-1.012-5.489-4.044-6.259-0.94-1.001 4.032-3.689 1.401-4.799 5.015-0.297 0.967-3.51 1.131-4.59 1.88-2.426 1.685-1.982 2.651-1.982 5.434 2.469 7.673-1.288 3.019-1.044 6.269 0.297 3.957-2.589 1.545-4.277 3.239-2.812 2.822 0.012 1.795 0.73 3.553 0.559 1.369-1.669 2.66-1.669 4.91 0 4.08-6.589-3.584-4.069 0.209 2.021 3.04-2.295 4.108 0 5.642 0.536 0.358 1.116 0.831 1.703 1.326h5.289c0.865-1.972 1.654-4.499 1.875-5.401z" fill="#FCDC04"/>
	<path d="m1226.2 1185.4c0.594-0.116 1.758-0.827 2.087-1.358l3.181-5.12c0.736-1.185 1.109-1.992-0.522-2.403-2.006-0.507-3.095-1.215-4.172 0.889-0.428 0.836-0.99 2.271-1.044 3.187l-1.199 2.56c0 1.377-0.258 2.623 1.669 2.245z" fill="#FCDC04"/>
	<path d="m800.95 1409.4c0.724 0 1.73 0.102 2.4-0.104 0.59-0.183 1.396-1.817 1.669-2.404 0.403-0.867 1.057-1.441 1.252-2.403 0.178-0.875 0-1.788 0-2.508-0.929-0.23-0.839 0.495-1.356 1.15-0.73 0.926-1.676 1.565-2.087 2.717l-2.816 1.88c-0.251 1.008-0.201 1.672 0.938 1.672z" fill="#D90000"/>
	<path d="m65.054 1374.6c-0.758 1.858-3.082 6.165 0.626 6.165 3.752 0 0.173 10.553-4.799 10.553-4.753 0 1.634 7.97 0.73 9.613-0.769 1.397-2.196 2.146-2.608 3.762-1.046 4.103 2.464 2.24-1.669 6.374-1.596 1.596-1.669 2.869-1.669 5.119 0 2.954-3.798 4.838-4.591 8.15-0.529 2.212 3.025 6.972 3.025 10.762-0.324 2.414-2.92 8.915-1.356 11.18 5.081 7.362 2.653 11.208 0 18.913-1.18 3.426 0.324 5.457 1.044 8.673 1.224 5.466-6.926 3.125-11.372 3.97-5.836 1.108-0.501 4.468 0.522 6.792 0.939 2.133-2.499 3.728-2.19 6.269 0.278 2.302 5.558 8.058 3.442 9.613-1.676 1.231-3.856 0.322-3.442 3.239 0.207 1.46-0.123 5.738-0.418 7.314 1.193 8.383 1.714 16.806 0.104 25.287-1.008 5.311-2.878 11.665-1.982 17.241 0.33 2.055-1.978 3.419-1.564 5.434 1.383 6.731 12.127 5.738 7.928 15.255-1.885 4.273-2.439 5.714-1.669 10.763 0.597 3.908 5.263 5.495 3.756 10.031l-4.695 19.331c5.767-0.606 11.285-0.913 17.109-1.149 2.779-0.113 4.711-0.772 7.198-1.88 2.798-1.246 4.636-4.381 6.99-6.27 5.344-0.422 9.18-4.074 15.858-4.074 3.426 0 4.4 1.882 6.364 4.284 7.621 9.322 3.76-9.927 11.476-9.927 0.054-0.165 0.202-0.209 0.417-0.209l9.389 1.045c0 7.803 1.213 4.384 4.799 9.404 3.895 5.45 3.954 18.761 6.885 26.123 1.529 3.841 9.272 10.032 12.415 4.598 2.514-4.349 7.923 0.897 12.623-3.135 2.89-2.478 7.385-6.2 10.85-7.733 1.58-0.699 5.549 0.755 6.677-0.522 1.997-2.259-0.777-7.628 5.112-7.942 3.525-0.187 4.129-6.846 8.241-8.672 2.468 0.722 11.267 2.026 11.267-2.195 0-2.885 5.38-4.382 7.303-5.642 2.161-1.415 0.097-4.752 1.148-6.792 0.814-1.583 3.834-3.5 3.964-5.224 0.377-5.028-0.323-8.008 5.633-8.882 4.548-0.667 5.208 0.81 7.825-2.507 2.555-3.237 4.756-7.162 8.137-8.673 4.084-1.824 9.617-7.395 10.015-12.225 1.887-2.701 1.532-6.209 2.712-9.091 1.853-4.521 10.537-0.835 10.537-9.091 0-1.647-0.688-3.322 0.105-4.911 1.821-3.651 1.651-6.628 2.92-10.449 2.019-6.078 15.437 1.776 19.196 1.776 3.45 0 2.456-3.062 5.112-4.598 2.857-1.652 6.151 0.264 8.868 1.255l1.982 1.88 4.59-0.418c7.015 9.245 11.919-1.232 18.882 1.044 2.932 0.959 5.623-0.627 8.659-0.627 5.117 0 10.781 3.651 15.858 1.567 6.292-2.584 8.004-12.099 12.727-16.822 0.99-0.99 9.032-0.209 10.85-0.522 3.5-0.602 8.139-2.527 10.433-5.329l8.659 2.612 275.54 0.022c-0.484-1.107-0.959-2.411-0.959-4.097 0-4.976-4.068-3.888-4.068-6.061 0-1.22 1.231-2.285 2.19-2.926 3.729-2.491-2.157-4.66-2.4-8.986-0.258-4.594 1.356-8.777 1.356-13.062-0.191-0.047-0.161-0.018-0.208-0.208-3.925 0-4.362-6.061-8.867-6.061-2.842 0-11.125 5.099-10.745-2.09 0.792-5.297-0.198-9.8 1.147-15.255 2.499-10.141 10.138-15.998 14.918-24.556 1.479-2.648 14.239-15.984 13.98-17.031-3.368 0-6.155-1.645-6.155-5.434 0.38-2.285 0.264-10.206 0.834-11.284 2.921-5.524 8.103-8.265 11.046-13.934h-604.21c-0.08 0.352-0.182 0.709-0.335 1.083z" fill="#D90000"/>
	<path d="m764.23 1373.5h-5.289c1.163 0.98 2.356 2.053 3.304 2.541 0.541 0.278 1.288-0.952 1.985-2.541z" fill="#D90000"/>
	<path d="m810.13 1410.4l-1.982 3.657c0.211 0.848 0.579 1.776 1.564 1.15 0.539-0.341 1.17-0.755 1.669-1.15 0.6-0.473 0.533-1.563 0.834-2.194 0.212-0.446 0.334-1.266 0.627-1.672 0.211-0.294 0.425-0.433 0.626-0.836 0.579-1.161 0.803-1.943 0.73-3.239-0.028-0.514-0.425-0.749-0.522-1.045-1.948 1e-3 -3.427 3.634-3.546 5.329z" fill="#D90000"/>
	<path d="m802.62 1374.4l0.104 0.104h0.209c0.152-0.254 0.25-0.592 0.322-0.973h-1.052c0.215 0.374 0.373 0.691 0.417 0.869z" fill="#D90000"/>
	<path d="m801.67 1089.5c137.7 0 249.33-111.63 249.33-249.33s-111.63-249.33-249.33-249.33-249.33 111.63-249.33 249.33 111.63 249.33 249.33 249.33zm-49.62-367.67l0.38-2.739c-0.222 0.062-0.433 0.123-0.663 0.185-16.17-6.24 0.284-23.263 3.405-25.817 0.223 0.258 0.463 0.505 0.708 0.748l0.143-1.03s-33.664 5.953-39.467 2.632l-1.101 0.203s0.378-0.091 1.027-0.245c-0.605-0.369-0.882-0.848-0.744-1.457 1.419-6.24 37.163-15.886 37.163-15.886s-9.078-12.483 4.54-28.936c0.141-0.127 0.288-0.236 0.43-0.361l-0.146 0.077-16.172-29.787c6.24-6.24 16.739-11.064 33.476-11.064 0 1.13-1.686 32.312-1.702 32.611 7e-3 -2e-3 0.013-4e-3 0.02-5e-3l2.249-32.606s33.476-1.984 51.632 19.858c0.021-0.021-0.072 0.119-0.242 0.369 10.611 11.286 15.025 19.443 16.696 31.688 0.273 0.273-24.163 6.066-25.981 6.243 0.053 0.283 0.123 0.563 0.166 0.849 0.851-0.284 3.405 21.845-21.277 42.27-20.426 23.263-10.213 71.49-10.213 71.49l0.715 0.916c2.622-1.263 6.734-1.106 13.752 2.206 15.037 7.092 84.257 41.984 94.186 43.687 1.119 0.192 2.002 1.567 2.69 3.84 118.44 43.033 41.589 155.18 5.265 158.43-7e-3 9e-3 -0.012 0.011-0.012 1e-3 4e-3 0 8e-3 -1e-3 0.012-1e-3 0.213-0.264 3.59-8.177 17.295-22.978-17.59 15.32-19.574 9.645-19.574 9.645s0.565-4.254 7.943-10.213c-26.952 13.05-23.831 7.945-23.831 7.945l6.81-6.81s-2.838 0.853-7.094-2.835c40-20.993 23.547-63.831 23.547-63.831s6.526 23.261-13.618 36.595c4.742-7.903 4.911-16.086 2.331-24.041-0.563 5.742-1.029 9.23-1.196 9.006 0 0-8.652-20.896-29.071-38.935l19.993 25.601s-35.46-7.943-41.987-2.838c-6.524 5.108 9.362 31.206 14.753 38.016 5.389 6.808-1.421 17.588-5.391 17.588 0 0-30.071-3.689-37.163-0.284s1.986 72.341 1.986 72.341 29.22-1.703 38.298 13.05c-60.142-7.661-91.065 27.801-91.065 27.801-5.957-9.929 13.334-26.952 13.334-26.952s-11.066-2.835-34.895-1.417c2.554-10.213 43.119-15.888 60.142-11.915 2.554-6.243-5.389-72.909-5.389-72.909s-17.023 0.851-40.568-1.986c-23.547-2.837-23.547 31.206-27.803 28.369-4.254-2.835-5.673-22.126-5.673-22.126s-7.659 11.913-6.524 29.504c-6.81-5.959-5.959-22.696-5.959-22.696s-4.824 11.064-10.213 23.547c-7.092-46.243 21.277-44.824 28.652-47.094 8.229-3.119 63.264-1.135 68.655 0.567 3.811-6.535 0.046-38.935-0.262-41.52-0.246 0.108-2.631-1.492-19.599-18.906-22.977-5.957-44.822-32.909-44.822-32.909s-1.419 2.554-1.986 2.838c-62.127-63.829 19.009-137.59 19.009-137.59z" fill="#fff"/>
	<path d="m810.34 652.38c0.06 0.065 0.114 0.134 0.174 0.2l3.47-5.384c-1.518 2.16-2.812 4.001-3.644 5.184z" fill="#fff"/>
	<path d="m775.03 608.39c-16.737 0-27.236 4.824-33.476 11.064l16.172 29.787 0.146-0.077c4.811-4.217 10.086-6.85 15.457-8.164 0.015-0.297 1.701-31.48 1.701-32.61z" fill="#D90000"/>
	<path d="m810.34 652.38c0.832-1.183 2.126-3.024 3.643-5.184l12.392-19.229c0.211 0.221 0.403 0.434 0.609 0.653 0.17-0.25 0.263-0.39 0.242-0.369-18.156-21.842-51.632-19.858-51.632-19.858l-2.249 32.606c13.887-3.389 28.38 1.992 36.995 11.381z" fill="#FCDC04"/>
	<path d="m813.99 647.19l-3.47 5.384c3.662 4.053 6.22 8.834 7.185 13.971 1.818-0.177 26.254-5.97 25.981-6.243-1.67-12.245-6.084-20.403-16.696-31.688-0.206-0.219-0.398-0.431-0.609-0.653l-12.391 19.229z" fill="#D90000"/>
	<path d="m735.03 856.62s21.844 26.952 44.822 32.909c16.968 17.414 19.352 19.014 19.599 18.906 0.308 2.585 4.073 34.985 0.262 41.52-5.391-1.702-60.426-3.687-68.655-0.567-7.375 2.27-35.744 0.851-28.652 47.094 5.389-12.483 10.213-23.547 10.213-23.547s-0.851 16.737 5.959 22.696c-1.135-17.59 6.524-29.504 6.524-29.504s1.419 19.291 5.673 22.126c4.256 2.838 4.256-31.206 27.803-28.369 23.545 2.838 40.568 1.986 40.568 1.986s7.943 66.666 5.389 72.909c-17.023-3.973-57.589 1.703-60.142 11.915 23.829-1.419 34.895 1.417 34.895 1.417s-19.291 17.023-13.334 26.952c0 0 30.922-35.463 91.065-27.801-9.078-14.753-38.298-13.05-38.298-13.05s-9.078-68.937-1.986-72.341c7.092-3.405 37.163 0.284 37.163 0.284 3.97 0 10.78-10.78 5.391-17.588-5.391-6.81-21.277-32.909-14.753-38.016 6.526-5.105 41.987 2.838 41.987 2.838l-19.993-25.601c-10.964-9.686-25.318-18.549-43.554-22.91-52.199-12.483-45.392-68.085-41.135-71.49 1.21-2.572 2.26-5.868 5.255-7.311l-0.715-0.916s-10.213-48.227 10.213-71.49c24.682-20.426 22.128-42.554 21.277-42.27-0.043-0.286-0.113-0.565-0.166-0.849-0.965-5.137-3.523-9.919-7.185-13.971-0.059-0.066-0.114-0.134-0.174-0.2-8.615-9.389-23.108-14.77-36.995-11.382-7e-3 2e-3 -0.013 4e-3 -0.02 5e-3 -5.371 1.314-10.646 3.947-15.457 8.164-0.142 0.124-0.289 0.233-0.43 0.361-13.618 16.453-4.54 28.936-4.54 28.936s-35.744 9.645-37.163 15.886c-0.139 0.61 0.139 1.088 0.744 1.457 5.56-1.321 32.297-7.579 35.852-6.562l-35.778 6.605c5.802 3.321 39.467-2.632 39.467-2.632l-0.143 1.03c4.335 4.301 11.865 6.472 11.775 13.721-3.638 3.638 0.713 6.723-15.224 11.162l-0.38 2.739s-81.136 73.758-19.007 137.59c0.564-0.286 1.983-2.84 1.983-2.84zm53.051-159.72c-4.824 1.135-8.227 2.27-9.646-3.97-1.135-4.54 6.524-7.094 8.51-8.513 12.199-6.524 9.078-28.936 9.078-28.936 19.575 11.916 4.822 39.149-7.942 41.419zm-23.21-22.034c0-2.651 2.149-4.8 4.8-4.8s4.8 2.149 4.8 4.8-2.149 4.8-4.8 4.8-4.8-2.149-4.8-4.8zm10.644 36.428c-7.607 26.725-23.445 51.747-6.656 81.876 0 0-7.988-0.665-9.318-0.665-1.332 0 2.662 10.651 2.662 10.651-3.773-0.444-7.544-0.886-11.317-1.33 1.553 2.885 3.108 5.768 4.661 8.653-2.662-0.665-5.326-1.332-7.988-1.997 0 0 2.848 7.715 2.662 11.315 0.585 1.172-6.112-3.985-6.759-4.659-0.696 0.122-0.218 4.389-1.513 11.022-25.471-49.794 33.566-114.87 33.566-114.87zm56.82 239.23c-5.105 1.986-16.17 0-16.17 0l-0.851-31.774c16.737 9.646 22.128 29.788 17.021 31.774zm-15.318-69.504c-4.824-3.121-11.348-4.822-25.533 1.135-5.105-10.497-1.419-24.112-0.568-27.801 9.931 13.332 14.471 17.305 26.101 26.666z"/>
	<path d="m743.46 815.14c0.647 0.673 7.344 5.831 6.759 4.659 0.186-3.6-2.662-11.315-2.662-11.315 2.662 0.665 5.326 1.332 7.988 1.997-1.553-2.885-3.108-5.768-4.661-8.653 3.773 0.444 7.544 0.886 11.317 1.33 0 0-3.994-10.651-2.662-10.651 1.33 0 9.318 0.665 9.318 0.665-16.789-30.13-0.951-55.152 6.656-81.876 0 0-59.038 65.072-33.567 114.87 1.296-6.634 0.818-10.901 1.514-11.023z" fill="#9CA69C"/>
	<path d="m796.02 655.48s3.121 22.412-9.078 28.936c-1.986 1.419-9.646 3.973-8.51 8.513 1.419 6.24 4.822 5.105 9.646 3.97 12.764-2.27 27.517-29.503 7.942-41.419z" fill="#9CA69C"/>
	<circle cx="769.67" cy="674.86" r="4.8" fill="#fff"/>
	<path d="m767.66 707.96c0.09-7.249-7.44-9.42-11.775-13.721-0.245-0.243-0.486-0.49-0.708-0.748-3.121 2.554-19.575 19.577-3.405 25.817 0.23-0.062 0.441-0.124 0.663-0.185 15.938-4.44 11.587-7.525 15.225-11.163z" fill="#D90000"/>
	<path d="m791.48 882.15c14.185-5.957 20.709-4.256 25.533-1.135-11.629-9.362-16.169-13.334-26.101-26.666-0.851 3.689-4.537 17.305 0.568 27.801z" fill="#9CA69C"/>
	<path d="m816.16 950.52s11.064 1.986 16.17 0c5.107-1.986-0.284-22.128-17.021-31.774l0.851 31.774z" fill="#fff"/>
	<path d="m855.82 853.19l3.766-2.824c-3.378-0.753-6.838-1.426-10.514-1.973 2.721 1.92 4.931 3.471 6.748 4.797z" fill="#9CA69C"/>
	<path d="m866.1 837.89c1.633 1.336 3.141 2.758 4.525 4.196l2.359-1.77c-3.352-1.414-5.91-2.361-6.884-2.426z" fill="#9CA69C"/>
	<path d="m781.84 789.38c-4.256 3.405-11.064 59.007 41.135 71.49 18.236 4.361 32.59 13.224 43.554 22.91 20.42 18.039 29.071 38.935 29.071 38.935 0.168 0.224 0.633-3.264 1.196-9.006-8.995-27.739-51.503-52.681-50.842-53.122l1.574-1.181c-0.638 0.021-1.007 0.046-1.007 0.046s-19.007-18.156-22.412-19.575c-2.554 0-17.304-9.362-17.304-9.362-7.375-3.689-14.183-29.22 13.051-21.844 28.083 13.332 32.055 14.469 32.055 14.469 10.337 3.24 20.672 6.482 31.008 9.723l0.482-0.361s1.137 1.135-6.808-7.094c7.652 1.906 14.676 4.049 21.129 6.394-0.688-2.273-1.571-3.648-2.69-3.84-9.929-1.703-79.149-36.595-94.186-43.687-7.018-3.311-11.13-3.469-13.752-2.206-2.994 1.443-4.044 4.739-5.254 7.311z" fill="#9CA69C"/>
	<path d="m902.99 990.23c-4e-3 0-8e-3 1e-3 -0.012 1e-3 0 0.01 4e-3 9e-3 0.012-1e-3z" fill="#D90000"/>
	<path d="m883.4 832.5l-0.482 0.361c0.823 0.258 1.645 0.516 2.468 0.774 6.431 7.187 12.86 14.374 19.291 21.561 0 0-20.402-10.117-31.697-14.881l-2.359 1.77c6.55 6.806 10.228 13.96 10.228 13.96-7.382-2.119-14.121-4.096-21.26-5.686l-3.766 2.824c4.622 3.373 6.621 5.241 7.436 7.685-6.943-1.567-13.338-1.544-15.73-1.465l-1.574 1.181c-0.662 0.441 41.847 25.383 50.842 53.122 2.579 7.954 2.41 16.138-2.331 24.041 20.144-13.334 13.618-36.595 13.618-36.595s16.453 42.838-23.547 63.831c4.256 3.689 7.094 2.835 7.094 2.835l-6.81 6.81s-3.121 5.105 23.831-7.945c-7.378 5.959-7.943 10.213-7.943 10.213s1.984 5.675 19.574-9.645c-13.705 14.801-17.082 22.715-17.295 22.978 36.324-3.252 113.17-115.4-5.265-158.43-6.454-2.345-13.478-4.488-21.129-6.394 7.944 8.23 6.806 7.095 6.806 7.095z" fill="#D90000"/>
	<path d="m863.26 860.87c-0.815-2.444-2.813-4.312-7.436-7.685-1.817-1.326-4.026-2.877-6.748-4.797 3.676 0.547 7.135 1.221 10.514 1.973 7.139 1.59 13.878 3.567 21.26 5.686 0 0-3.678-7.155-10.228-13.96-1.384-1.438-2.892-2.86-4.525-4.196 0.974 0.065 3.533 1.012 6.885 2.426 11.295 4.763 31.697 14.881 31.697 14.881-6.431-7.187-12.86-14.374-19.291-21.561-0.823-0.258-1.645-0.516-2.468-0.774-10.337-3.241-20.672-6.483-31.008-9.723 0 0-3.973-1.137-32.055-14.469-27.234-7.375-20.426 18.156-13.051 21.844 0 0 14.751 9.362 17.304 9.362 3.405 1.419 22.412 19.575 22.412 19.575s0.369-0.025 1.007-0.046c2.393-0.079 8.788-0.102 15.731 1.464z" fill="#fff"/>
	<path d="m716.48 695.8c-0.65 0.154-1.027 0.245-1.027 0.245l1.101-0.203 35.778-6.605c-3.556-1.016-30.293 5.241-35.852 6.563z"/>
</svg>
